<?xml version="1.0" encoding="UTF-8" standalone="no"?>
<!DOCTYPE svg PUBLIC "-//W3C//DTD SVG 1.1//EN" "http://www.w3.org/Graphics/SVG/1.1/DTD/svg11.dtd">
<!-- Microsoft Visio、SVG Export により生成 figure-fsp-external-adc_RZV.svg figure-fsp-external-dac -->
<svg xmlns="http://www.w3.org/2000/svg" xmlns:xlink="http://www.w3.org/1999/xlink" xmlns:ev="http://www.w3.org/2001/xml-events"
		xmlns:v="http://schemas.microsoft.com/visio/2003/SVGExtensions/" width="5.42708in" height="4.375in"
		viewBox="0 0 390.75 315" xml:space="preserve" color-interpolation-filters="sRGB" class="st12">
	<v:documentProperties v:langID="1041"/>

	<style type="text/css">
	<![CDATA[
		.st1 {fill:#5b9bd5;stroke:#939393;stroke-linecap:butt;stroke-width:0.75}
		.st2 {fill:none;stroke:none;stroke-linecap:butt;stroke-width:0.75}
		.st3 {fill:#ffffff;font-family:Arial;font-size:0.916672em}
		.st4 {font-size:1em}
		.st5 {fill:#70ad47;stroke:#939393;stroke-linecap:butt;stroke-width:0.75}
		.st6 {fill:none;stroke:none;stroke-width:0.999998}
		.st7 {fill:none;stroke:none;stroke-width:0.999999}
		.st8 {fill:none}
		.st9 {stroke:#000000;stroke-linecap:butt;stroke-width:0.75}
		.st10 {fill:#000000;stroke:#000000;stroke-linecap:butt;stroke-width:0.75}
		.st11 {fill:#50632a;font-family:Arial;font-size:0.75em}
		.st12 {fill:none;fill-rule:evenodd;font-size:12px;overflow:visible;stroke-linecap:square;stroke-miterlimit:3}
	]]>
	</style>

	<g v:mID="0" v:index="1" v:groupContext="foregroundPage">
		<title>figure-fsp-external-dac</title>
		<v:pageProperties v:drawingScale="1" v:pageScale="1" v:drawingUnits="19" v:shadowOffsetX="8.99998"
				v:shadowOffsetY="-8.99998"/>
		<g id="group1-1" transform="translate(-35.65,-0.375194)" v:mID="1" v:groupContext="group">
			<title>シート.1</title>
			<g id="shape2-2" v:mID="2" v:groupContext="shape" transform="translate(36.025,-76.5)">
				<title>シート.2</title>
				<path d="M0 291.38 L0 310.24 C0 313.41 1.59 315 4.76 315 L147.49 315 C150.66 315 152.25 313.41 152.25 310.24 L152.25
							 272.51 C152.25 269.34 150.66 267.75 147.49 267.75 L4.76 267.75 C1.59 267.75 0 269.34 0 272.51 L0 291.38
							 Z" class="st1"/>
			</g>
			<g id="shape3-4" v:mID="3" v:groupContext="shape" transform="translate(-9.43245E-13,-93.2998)">
				<title>シート.3</title>
				<desc>r_adc_e R_ADC_Read()</desc>
				<v:userDefs/>
				<v:textBlock v:margins="rect(0,0,0,0)"/>
				<v:textRect cx="112.525" cy="309.6" width="225.06" height="10.8"/>
				<rect x="0" y="304.2" width="225.05" height="10.8" class="st2"/>
				<text x="92.65" y="306.3" class="st3" v:langID="1041"><v:paragraph v:horizAlign="1"/><v:tabList/>r_adc_e<v:lf/><tspan
							x="67.28" dy="1.2em" class="st4">R_ADC_E_Read()</tspan></text>			</g>
			<g id="shape4-8" v:mID="4" v:groupContext="shape" transform="translate(36.025,-267)">
				<title>シート.4</title>
				<path d="M0 291.38 L0 310.24 C0 313.41 1.59 315 4.76 315 L147.49 315 C150.66 315 152.25 313.41 152.25 310.24 L152.25
							 272.51 C152.25 269.34 150.66 267.75 147.49 267.75 L4.76 267.75 C1.59 267.75 0 269.34 0 272.51 L0 291.38
							 Z" class="st5"/>
			</g>
			<g id="shape5-10" v:mID="5" v:groupContext="shape" transform="translate(-9.43245E-13,-283.8)">
				<title>シート.5</title>
				<desc>Application</desc>
				<v:userDefs/>
				<v:textBlock v:margins="rect(0,0,0,0)"/>
				<v:textRect cx="112.525" cy="309.6" width="225.06" height="10.8"/>
				<rect x="0" y="304.2" width="225.05" height="10.8" class="st2"/>
				<text x="85.62" y="312.9" class="st3" v:langID="1041"><v:paragraph v:horizAlign="1"/><v:tabList/>Application</text>			</g>
			<g id="shape6-13" v:mID="6" v:groupContext="shape" transform="translate(55.525,-162)">
				<title>シート.6</title>
				<path d="M57 315 L114 277.13 L57 239.25 L0 277.13 L57 315 Z" class="st5"/>
			</g>
			<g id="shape7-15" v:mID="7" v:groupContext="shape" transform="translate(0.75,-193.05)">
				<title>シート.7</title>
				<desc>Is External?</desc>
				<v:userDefs/>
				<v:textBlock v:margins="rect(0,0,0,0)"/>
				<v:textRect cx="112.525" cy="309.6" width="225.06" height="10.8"/>
				<rect x="0" y="304.2" width="225.05" height="10.8" class="st2"/>
				<text x="83.48" y="312.9" class="st3" v:langID="1041"><v:paragraph v:horizAlign="1"/><v:tabList/>Is External?</text>			</g>
			<g id="shape8-18" v:mID="8" v:groupContext="shape" transform="translate(217.525,-76.5)">
				<title>シート.8</title>
				<path d="M0 291.38 L0 310.24 C0 313.41 1.59 315 4.76 315 L203.74 315 C206.91 315 208.5 313.41 208.5 310.24 L208.5
							 272.51 C208.5 269.34 206.91 267.75 203.74 267.75 L4.76 267.75 C1.59 267.75 0 269.34 0 272.51 L0 291.38
							 Z" class="st1"/>
			</g>
			<g id="shape9-20" v:mID="9" v:groupContext="shape" transform="translate(210,-93.2998)">
				<title>シート.9</title>
				<desc>adc_external ADC_EXTERNAL_Read()</desc>
				<v:userDefs/>
				<v:textBlock v:margins="rect(0,0,0,0)"/>
				<v:textRect cx="112.525" cy="309.6" width="225.06" height="10.8"/>
				<rect x="0" y="304.2" width="225.05" height="10.8" class="st2"/>
				<text x="81.03" y="306.3" class="st3" v:langID="1041"><v:paragraph v:horizAlign="1"/><v:tabList/>adc_external<v:lf/><tspan
							x="48.95" dy="1.2em" class="st4">ADC_EXTERNAL_Read()</tspan></text>			</g>
			<g id="shape10-24" v:mID="10" v:groupContext="shape" transform="translate(217.525,5.68434E-14)">
				<title>シート.10</title>
				<path d="M0 291.38 L0 310.24 C0 313.41 1.59 315 4.76 315 L203.74 315 C206.91 315 208.5 313.41 208.5 310.24 L208.5
							 272.51 C208.5 269.34 206.91 267.75 203.74 267.75 L4.76 267.75 C1.59 267.75 0 269.34 0 272.51 L0 291.38
							 Z" class="st1"/>
			</g>
			<g id="shape11-26" v:mID="11" v:groupContext="shape" transform="translate(209.25,-16.8)">
				<title>シート.11</title>
				<desc>I2C</desc>
				<v:userDefs/>
				<v:textBlock v:margins="rect(0,0,0,0)"/>
				<v:textRect cx="112.525" cy="309.6" width="225.06" height="10.8"/>
				<rect x="0" y="304.2" width="225.05" height="10.8" class="st2"/>
				<text x="103.97" y="312.9" class="st3" v:langID="1041"><v:paragraph v:horizAlign="1"/><v:tabList/>I2C</text>			</g>
			<g id="group12-29" transform="translate(321.265,-52.59)" v:mID="12" v:groupContext="group">
				<title>シート.12</title>
				<g id="shape13-30" v:mID="13" v:groupContext="shape">
					<title>シート.13</title>
					<path d="M0 291.09 L0 315 L0 291.09 Z" class="st6"/>
				</g>
				<g id="group14-32" v:mID="14" v:groupContext="group">
					<title>シート.14</title>
					<g id="shape15-33" v:mID="15" v:groupContext="shape">
						<title>シート.15</title>
						<path d="M0 291.09 L0 315 L0 291.09 Z" class="st7"/>
					</g>
					<g id="shape16-35" v:mID="16" v:groupContext="shape">
						<title>シート.16</title>
						<path d="M0 291.09 L0 315 L0 291.09 Z" class="st8"/>
						<path d="M0 291.09 L0 315" class="st9"/>
					</g>
				</g>
			</g>
			<g id="shape17-38" v:mID="17" v:groupContext="shape" transform="translate(319.015,-48.09)">
				<title>シート.13</title>
				<path d="M2.25 315 L0 310.5 L4.5 310.5 L2.25 315 Z" class="st10"/>
			</g>
			<g id="group18-40" transform="translate(112.525,-243.09)" v:mID="18" v:groupContext="group">
				<title>シート.14</title>
				<g id="shape19-41" v:mID="19" v:groupContext="shape">
					<title>シート.17</title>
					<path d="M0 291.09 L0 315 L0 291.09 Z" class="st6"/>
				</g>
				<g id="group20-43" v:mID="20" v:groupContext="group">
					<title>シート.18</title>
					<g id="shape21-44" v:mID="21" v:groupContext="shape">
						<title>シート.21</title>
						<path d="M0 291.09 L0 315 L0 291.09 Z" class="st7"/>
					</g>
					<g id="shape22-46" v:mID="22" v:groupContext="shape">
						<title>シート.22</title>
						<path d="M0 291.09 L0 315 L0 291.09 Z" class="st8"/>
						<path d="M0 291.09 L0 315" class="st9"/>
					</g>
				</g>
			</g>
			<g id="shape23-49" v:mID="23" v:groupContext="shape" transform="translate(110.275,-238.59)">
				<title>シート.15</title>
				<path d="M2.25 315 L0 310.5 L4.5 310.5 L2.25 315 Z" class="st10"/>
			</g>
			<g id="group24-51" transform="translate(169.525,-129.09)" v:mID="24" v:groupContext="group">
				<title>シート.16</title>
				<g id="shape25-52" v:mID="25" v:groupContext="shape">
					<title>シート.21</title>
					<path d="M0 243.84 L151.5 243.84 L151.72 315 L0 243.84 Z" class="st6"/>
				</g>
				<g id="group26-54" v:mID="26" v:groupContext="group">
					<title>シート.22</title>
					<g id="shape27-55" v:mID="27" v:groupContext="shape">
						<title>シート.27</title>
						<path d="M0 243.84 L151.5 243.84 L151.72 315 L0 243.84 Z" class="st7"/>
					</g>
					<g id="shape28-57" v:mID="28" v:groupContext="shape">
						<title>シート.28</title>
						<path d="M0 243.84 L151.5 243.84 L151.72 315 L0 243.84 Z" class="st8"/>
						<path d="M0 243.84 L151.5 243.84 L151.72 315" class="st9"/>
					</g>
				</g>
			</g>
			<g id="shape29-60" v:mID="29" v:groupContext="shape" transform="translate(318.992,-124.59)">
				<title>シート.17</title>
				<path d="M2.27 315 L0 310.51 L4.5 310.49 L2.27 315 Z" class="st10"/>
			</g>
			<g id="shape30-62" v:mID="30" v:groupContext="shape" transform="translate(141.575,-201.675)">
				<title>シート.18</title>
				<desc>Yes</desc>
				<v:userDefs/>
				<v:textBlock v:margins="rect(0,0,0,0)"/>
				<v:textRect cx="38.075" cy="310.05" width="76.16" height="9.89998"/>
				<rect x="0" y="305.1" width="76.1501" height="9.89998" class="st2"/>
				<text x="30.32" y="312.75" class="st11" v:langID="1041"><v:paragraph v:horizAlign="1"/><v:tabList/>Yes</text>			</g>
			<g id="group31-65" transform="translate(112.525,-129.09)" v:mID="31" v:groupContext="group">
				<title>シート.19</title>
				<g id="shape32-66" v:mID="32" v:groupContext="shape">
					<title>シート.26</title>
					<path d="M0 282.09 L0 315 L0 282.09 Z" class="st6"/>
				</g>
				<g id="group33-68" v:mID="33" v:groupContext="group">
					<title>シート.27</title>
					<g id="shape34-69" v:mID="34" v:groupContext="shape">
						<title>シート.34</title>
						<path d="M0 282.09 L0 315 L0 282.09 Z" class="st7"/>
					</g>
					<g id="shape35-71" v:mID="35" v:groupContext="shape">
						<title>シート.35</title>
						<path d="M0 282.09 L0 315 L0 282.09 Z" class="st8"/>
						<path d="M0 282.09 L0 315" class="st9"/>
					</g>
				</g>
			</g>
			<g id="shape36-74" v:mID="36" v:groupContext="shape" transform="translate(110.275,-124.59)">
				<title>シート.20</title>
				<path d="M2.25 315 L0 310.5 L4.5 310.5 L2.25 315 Z" class="st10"/>
			</g>
			<g id="shape37-76" v:mID="37" v:groupContext="shape" transform="translate(71.65,-151.725)">
				<title>シート.21</title>
				<desc>No</desc>
				<v:userDefs/>
				<v:textBlock v:margins="rect(0,0,0,0)"/>
				<v:textRect cx="55.3374" cy="310.05" width="110.68" height="9.89998"/>
				<rect x="0" y="305.1" width="110.675" height="9.89998" class="st2"/>
				<text x="49.58" y="312.75" class="st11" v:langID="1041"><v:paragraph v:horizAlign="1"/><v:tabList/>No</text>			</g>
		</g>
	</g>
</svg>
