<?xml version="1.0" encoding="UTF-8" standalone="no"?>
<!DOCTYPE svg PUBLIC "-//W3C//DTD SVG 1.1//EN" "http://www.w3.org/Graphics/SVG/1.1/DTD/svg11.dtd">
<!-- Microsoft Visio、SVG Export により生成 figure-fsp-adc_e-read_RZV.svg ページ - 1 -->
<svg xmlns="http://www.w3.org/2000/svg" xmlns:xlink="http://www.w3.org/1999/xlink" xmlns:ev="http://www.w3.org/2001/xml-events"
		xmlns:v="http://schemas.microsoft.com/visio/2003/SVGExtensions/" width="2.14653in" height="1.73958in"
		viewBox="0 0 154.55 125.25" xml:space="preserve" color-interpolation-filters="sRGB" class="st12">
	<v:documentProperties v:langID="1041"/>

	<style type="text/css">
	<![CDATA[
		.st1 {fill:#5b9bd5;stroke:#939393;stroke-linecap:butt;stroke-width:0.749997}
		.st2 {fill:none;stroke:none;stroke-linecap:butt;stroke-width:0.749997}
		.st3 {fill:#ffffff;font-family:Arial;font-size:0.916672em}
		.st4 {font-size:1em}
		.st5 {fill:#70ad47;stroke:#939393;stroke-linecap:butt;stroke-width:0.749997}
		.st6 {fill:none;stroke:none;stroke-width:0.999994}
		.st7 {fill:none;stroke:none;stroke-width:0.999996}
		.st8 {fill:none;stroke:none;stroke-width:0.999998}
		.st9 {fill:none}
		.st10 {stroke:#000000;stroke-linecap:butt;stroke-width:0.749997}
		.st11 {fill:#000000;stroke:#000000;stroke-linecap:butt;stroke-width:0.749997}
		.st12 {fill:none;fill-rule:evenodd;font-size:12px;overflow:visible;stroke-linecap:square;stroke-miterlimit:3}
	]]>
	</style>

	<g v:mID="0" v:index="1" v:groupContext="foregroundPage">
		<title>ページ - 1</title>
		<v:pageProperties v:drawingScale="1" v:pageScale="1" v:drawingUnits="19" v:shadowOffsetX="8.99994"
				v:shadowOffsetY="-8.99994"/>
		<g id="group1-1" transform="translate(0.750681,-0.749997)" v:mID="1" v:groupContext="group">
			<title>シート.1</title>
			<g id="shape2-2" v:mID="2" v:groupContext="shape" transform="translate(0.025,6.11067E-13)">
				<title>シート.2</title>
				<path d="M0 101.63 L0 120.49 C0 123.66 1.59 125.25 4.76 125.25 L147.49 125.25 C150.66 125.25 152.25 123.66 152.25
							 120.49 L152.25 82.76 C152.25 79.59 150.66 78 147.49 78 L4.76 78 C1.59 78 0 79.59 0 82.76 L0 101.63 Z"
						class="st1"/>
			</g>
			<g id="shape3-4" v:mID="3" v:groupContext="shape" transform="translate(-0.750681,-16.8)">
				<title>シート.3</title>
				<desc>r_adc_e R_ADC_E_Read()</desc>
				<v:userDefs/>
				<v:textBlock v:margins="rect(0,0,0,0)"/>
				<v:textRect cx="76.5238" cy="119.85" width="153.06" height="10.8"/>
				<rect x="0" y="114.45" width="153.05" height="10.8" class="st2"/>
				<text x="56.65" y="116.55" class="st3" v:langID="1041"><v:paragraph v:horizAlign="1"/><v:tabList/>r_adc_e<v:newlineChar/><tspan
							x="31.28" dy="1.2em" class="st4">R_ADC</tspan>_E_Read()</text>			</g>
			<g id="shape4-8" v:mID="4" v:groupContext="shape" transform="translate(0.025,-76.4997)">
				<title>シート.4</title>
				<path d="M0 101.63 L0 120.49 C0 123.66 1.59 125.25 4.76 125.25 L147.49 125.25 C150.66 125.25 152.25 123.66 152.25
							 120.49 L152.25 82.76 C152.25 79.59 150.66 78 147.49 78 L4.76 78 C1.59 78 0 79.59 0 82.76 L0 101.63 Z"
						class="st5"/>
			</g>
			<g id="shape5-10" v:mID="5" v:groupContext="shape" transform="translate(0,-93.2994)">
				<title>シート.5</title>
				<desc>Application</desc>
				<v:userDefs/>
				<v:textBlock v:margins="rect(0,0,0,0)"/>
				<v:textRect cx="76.5238" cy="119.85" width="153.06" height="10.8"/>
				<rect x="0" y="114.45" width="153.05" height="10.8" class="st2"/>
				<text x="49.62" y="123.15" class="st3" v:langID="1041"><v:paragraph v:horizAlign="1"/><v:tabList/>Application</text>			</g>
			<g id="group6-13" transform="translate(76.5247,-52.5897)" v:mID="6" v:groupContext="group">
				<title>シート.6</title>
				<g id="shape7-14" v:mID="7" v:groupContext="shape">
					<title>シート.7</title>
					<path d="M0 101.34 L0 125.25 L0 101.34 Z" class="st6"/>
				</g>
				<g id="group8-16" v:mID="8" v:groupContext="group">
					<title>シート.8</title>
					<g id="shape9-17" v:mID="9" v:groupContext="shape">
						<title>シート.9</title>
						<path d="M0 101.34 L0 125.25 L0 101.34 Z" class="st7"/>
					</g>
					<g id="group10-19" v:mID="10" v:groupContext="group">
						<title>シート.10</title>
						<g id="shape11-20" v:mID="11" v:groupContext="shape">
							<title>シート.11</title>
							<path d="M0 101.34 L0 125.25 L0 101.34 Z" class="st8"/>
						</g>
						<g id="shape12-22" v:mID="12" v:groupContext="shape">
							<title>シート.12</title>
							<path d="M0 101.34 L0 125.25 L0 101.34 Z" class="st9"/>
							<path d="M0 101.34 L0 125.25" class="st10"/>
						</g>
					</g>
				</g>
			</g>
			<g id="shape13-25" v:mID="13" v:groupContext="shape" transform="translate(74.2747,-48.0897)">
				<title>シート.7</title>
				<path d="M2.25 125.25 L0 120.75 L4.5 120.75 L2.25 125.25 Z" class="st11"/>
			</g>
		</g>
	</g>
</svg>
